<svg width="308" height="62" viewBox="0 0 308 62" version="1.1" xmlns="http://www.w3.org/2000/svg" xmlns:xlink="http://www.w3.org/1999/xlink">
<title>logo</title>
<desc>Created using Figma</desc>
<g id="Canvas" transform="translate(-1566 115)">
<g id="logo">
<g id="B">
<use xlink:href="#path0_fill" transform="translate(1860.75 -109.531)" fill="#00FF29"/>
</g>
<g id="Ellipse (Stroke)">
<use xlink:href="#path1_fill" transform="translate(1854 -115)" fill="#00FF29"/>
</g>
<g id="Mask Group">
<mask id="mask0_alpha" mask-type="alpha">
<g id="Union">
<use xlink:href="#path2_fill" transform="translate(1554.92 -115)" fill="#C4C4C4"/>
</g>
</mask>
<g id="BATTT (Stroke)" mask="url(#mask0_alpha)">
<use xlink:href="#path3_fill" transform="translate(1566.05 -115.301)" fill="#00FF29"/>
</g>
</g>
<g id="Rectangle (Stroke)">
<use xlink:href="#path4_fill" transform="translate(1591.5 -104)" fill="#00FF29"/>
</g>
</g>
</g>
<defs>
<path id="path0_fill" d="M 0 8.53125L 1.47656 0L 3.83789 0.00585938C 4.6582 0.00585938 5.2832 0.205078 5.71289 0.603516C 6.14258 0.998047 6.33203 1.56055 6.28125 2.29102C 6.21484 3.1582 5.76172 3.78711 4.92188 4.17773C 5.22266 4.30273 5.44336 4.52148 5.58398 4.83398C 5.72461 5.14258 5.7793 5.52344 5.74805 5.97656C 5.68945 6.76953 5.40625 7.39453 4.89844 7.85156C 4.39453 8.30469 3.7168 8.53125 2.86523 8.53125L 0 8.53125ZM 2.32617 4.82227L 1.92773 7.10156L 2.91211 7.11328C 3.2832 7.10547 3.57422 6.9707 3.78516 6.70898C 4 6.44336 4.11133 6.06641 4.11914 5.57812C 4.11914 5.10938 3.92188 4.85938 3.52734 4.82812L 2.32617 4.82227ZM 2.53711 3.56836L 3.33398 3.58008C 3.75977 3.57227 4.08203 3.42773 4.30078 3.14648C 4.51953 2.86523 4.61328 2.50586 4.58203 2.06836C 4.54297 1.67383 4.30859 1.46484 3.87891 1.44141L 2.91211 1.43555L 2.53711 3.56836Z"/>
<path id="path1_fill" fill-rule="evenodd" d="M 20 10C 20 15.5228 15.5228 20 10 20C 4.47715 20 0 15.5228 0 10C 0 4.47715 4.47715 0 10 0C 15.5228 0 20 4.47715 20 10ZM 10 18C 14.4183 18 18 14.4183 18 10C 18 5.58172 14.4183 2 10 2C 5.58172 2 2 5.58172 2 10C 2 14.4183 5.58172 18 10 18Z"/>
<path id="path2_fill" fill-rule="evenodd" d="M 294.076 0L 18.0756 0L 18.0756 3.99724L 8.68237 2.34097L 0 51.5814L 11.0756 53.5343L 11.0756 62L 283.076 62L 283.076 57.2238L 285.544 57.659L 293.595 12L 294.076 12L 294.076 9.27295L 294.226 8.41865L 294.076 8.39209L 294.076 0ZM 258.055 12L 42.5192 12L 37.7583 39L 253.294 39L 258.055 12Z"/>
<path id="path3_fill" fill-rule="evenodd" d="M 0 62.3011L 10.7829 0L 28.6015 0.0442209L 28.6042 0.0442209C 34.5082 0.0446577 39.3393 1.47908 42.7701 4.65824C 46.2639 7.86832 47.6702 12.3711 47.2929 17.7982L 47.292 17.8122C 46.8666 23.3668 44.3319 27.6842 39.8663 30.679C 40.9006 31.6429 41.7326 32.8282 42.357 34.2157C 43.4145 36.5901 43.8661 39.6779 43.6495 42.9816L 43.6488 42.9914C 43.2171 48.8339 41.1024 53.6188 37.1865 57.1431C 33.2887 60.6481 28.1363 62.3011 21.955 62.3011L 0 62.3011ZM 40.5331 35.0364C 39.9272 33.6898 39.1036 32.598 38.0625 31.7609C 37.4526 31.2705 36.768 30.8676 36.0087 30.552C 36.7727 30.1967 37.4899 29.8124 38.1603 29.3994C 42.5252 26.7096 44.9044 22.7963 45.2978 17.6595C 45.6448 12.6679 44.3502 8.82417 41.414 6.12821C 38.4778 3.40555 34.2069 2.04422 28.6015 2.04422L 12.4657 2.00418L 2.37589 60.3011L 21.955 60.3011C 27.774 60.3011 32.4052 58.7529 35.8485 55.6565C 39.3186 52.5335 41.2538 48.2626 41.6542 42.844C 41.8678 39.7477 41.4941 37.1451 40.5331 35.0364ZM 26.6839 46.5939L 26.6861 46.5912C 27.7729 45.2475 28.4719 43.1733 28.5233 40.1058C 28.5211 38.7594 28.2321 38.044 27.9423 37.6767C 27.6999 37.3695 27.2797 37.0789 26.3892 36.996L 19.9507 36.9645L 17.9238 48.5597L 22.2644 48.6113C 24.2629 48.5624 25.6598 47.8646 26.6839 46.5939ZM 22.2753 50.6116L 15.5487 50.5315L 18.2714 34.9563L 26.4794 34.9964C 29.1754 35.2099 30.5233 36.9182 30.5233 40.1214C 30.47 43.458 29.7092 46.0338 28.2411 47.8489C 26.7997 49.6373 24.8111 50.5582 22.2753 50.6116ZM 25.1531 24.4678C 27.5714 24.4168 29.1402 23.6217 30.1859 22.2773C 31.3074 20.8352 31.8742 18.9105 31.6935 16.309C 31.5932 15.341 31.2863 14.834 30.954 14.5377C 30.6025 14.2243 29.971 13.9232 28.8184 13.8534L 23.9525 13.824L 22.089 24.4227L 25.1531 24.4678ZM 19.7128 26.388L 25.1581 26.468C 28.0676 26.4147 30.2698 25.427 31.7646 23.5052C 33.2594 21.5833 33.9 19.1276 33.6864 16.138C 33.4195 13.442 31.8179 12.0139 28.8817 11.8538L 22.2753 11.8138L 19.7128 26.388ZM 89.9493 60.3011L 88.9483 48.3694L 73.4532 48.3694L 68.3683 60.3011L 55.8761 60.3011L 83.6632 2.00418L 94.1935 2.00418L 101.841 60.3011L 89.9493 60.3011ZM 74.7749 50.3694L 69.69 62.3011L 52.7072 62.3011L 82.4009 0.00418186L 95.9482 0.00418186L 104.12 62.3011L 88.1101 62.3011L 87.1091 50.3694L 74.7749 50.3694ZM 88.1476 38.5598L 86.506 17.8997L 77.6573 38.5598L 88.1476 38.5598ZM 80.6896 36.5598L 85.9823 36.5598L 85.1541 26.136L 80.6896 36.5598ZM 161.905 13.8138L 147.935 13.8138L 139.527 62.3011L 123.936 62.3011L 132.344 13.8138L 118.566 13.8138L 120.99 0.00418186L 164.329 0.00418186L 161.905 13.8138ZM 134.721 11.8138L 126.313 60.3011L 137.844 60.3011L 146.252 11.8138L 160.226 11.8138L 161.948 2.00418L 122.669 2.00418L 120.948 11.8138L 134.721 11.8138ZM 218.489 13.8138L 204.518 13.8138L 196.11 62.3011L 180.519 62.3011L 188.928 13.8138L 175.149 13.8138L 177.573 0.00418186L 220.912 0.00418186L 218.489 13.8138ZM 191.304 11.8138L 182.896 60.3011L 194.427 60.3011L 202.835 11.8138L 216.809 11.8138L 218.531 2.00418L 179.252 2.00418L 177.531 11.8138L 191.304 11.8138ZM 275.072 13.8138L 261.102 13.8138L 252.693 62.3011L 237.103 62.3011L 245.511 13.8138L 231.732 13.8138L 234.156 0.00418186L 277.496 0.00418186L 275.072 13.8138ZM 247.887 11.8138L 239.479 60.3011L 251.01 60.3011L 259.419 11.8138L 273.392 11.8138L 275.114 2.00418L 235.836 2.00418L 234.114 11.8138L 247.887 11.8138Z"/>
<path id="path4_fill" fill-rule="evenodd" d="M 6.67449 2L 2.38878 26L 216.326 26L 220.611 2L 6.67449 2ZM 5 0L 0 28L 218 28L 223 0L 5 0Z"/>
</defs>
</svg>
